<svg width="300" height="300" viewBox="0 0 300 300" fill="none" xmlns="http://www.w3.org/2000/svg">
<path d="M300 0H0V300H300V0Z" fill="#F78422"/>
<path d="M194.989 104.772C154.331 64.1149 100.234 41.7234 42.6633 41.7234V84.0826C88.9196 84.0826 132.379 102.068 165.037 134.725C197.694 167.382 215.679 210.842 215.679 257.098H258.038C258.038 199.528 235.646 145.43 194.989 104.772Z" fill="white"/>
<path d="M42.2242 113.405V155.764C98.1 155.764 143.559 201.222 143.559 257.099H185.918C185.918 177.866 121.458 113.405 42.2242 113.405Z" fill="white"/>
<path d="M72.3012 258.276C89.057 258.276 102.64 244.693 102.64 227.937C102.64 211.181 89.057 197.598 72.3012 197.598C55.5455 197.598 41.9623 211.181 41.9623 227.937C41.9623 244.693 55.5455 258.276 72.3012 258.276Z" fill="white"/>
</svg>
