<svg width="253" height="36" viewBox="0 0 253 36" fill="none" xmlns="http://www.w3.org/2000/svg">
<path d="M43.95 28V13.12H47.34L47.64 15.64C48.1 14.76 48.76 14.06 49.62 13.54C50.5 13.02 51.53 12.76 52.71 12.76C54.55 12.76 55.98 13.34 57 14.5C58.02 15.66 58.53 17.36 58.53 19.6V28H54.69V19.96C54.69 18.68 54.43 17.7 53.91 17.02C53.39 16.34 52.58 16 51.48 16C50.4 16 49.51 16.38 48.81 17.14C48.13 17.9 47.79 18.96 47.79 20.32V28H43.95ZM70.782 28.36C68.922 28.36 67.482 27.78 66.462 26.62C65.462 25.46 64.962 23.76 64.962 21.52V13.12H68.772V21.16C68.772 22.44 69.032 23.42 69.552 24.1C70.072 24.78 70.892 25.12 72.012 25.12C73.072 25.12 73.942 24.74 74.622 23.98C75.322 23.22 75.672 22.16 75.672 20.8V13.12H79.512V28H76.122L75.822 25.48C75.362 26.36 74.692 27.06 73.812 27.58C72.952 28.1 71.942 28.36 70.782 28.36ZM85.0439 28L90.4439 20.56L85.0439 13.12H89.1539L92.9339 18.4L96.6839 13.12H100.824L95.3939 20.56L100.824 28H96.6839L92.9339 22.72L89.1539 28H85.0439ZM112.9 28C111.34 28 110.09 27.62 109.15 26.86C108.21 26.1 107.74 24.75 107.74 22.81V16.33H105.19V13.12H107.74L108.19 9.13H111.58V13.12H115.6V16.33H111.58V22.84C111.58 23.56 111.73 24.06 112.03 24.34C112.35 24.6 112.89 24.73 113.65 24.73H115.51V28H112.9ZM120.637 31.33L128.137 4.69H131.887L124.357 31.33H120.637Z" fill="white"/>
<path d="M138.214 28V16.33H136.174V13.12H138.214V11.38C138.214 9.58 138.664 8.3 139.564 7.54C140.484 6.78 141.724 6.4 143.284 6.4H144.934V9.67H143.884C143.224 9.67 142.754 9.8 142.474 10.06C142.194 10.32 142.054 10.76 142.054 11.38V13.12H145.264V16.33H142.054V28H138.214ZM157.95 28.36C156.45 28.36 155.12 28.04 153.96 27.4C152.8 26.76 151.89 25.86 151.23 24.7C150.57 23.54 150.24 22.2 150.24 20.68C150.24 19.14 150.56 17.77 151.2 16.57C151.86 15.37 152.76 14.44 153.9 13.78C155.06 13.1 156.42 12.76 157.98 12.76C159.44 12.76 160.73 13.08 161.85 13.72C162.97 14.36 163.84 15.24 164.46 16.36C165.1 17.46 165.42 18.69 165.42 20.05C165.42 20.27 165.41 20.5 165.39 20.74C165.39 20.98 165.38 21.23 165.36 21.49H154.05C154.13 22.65 154.53 23.56 155.25 24.22C155.99 24.88 156.88 25.21 157.92 25.21C158.7 25.21 159.35 25.04 159.87 24.7C160.41 24.34 160.81 23.88 161.07 23.32H164.97C164.69 24.26 164.22 25.12 163.56 25.9C162.92 26.66 162.12 27.26 161.16 27.7C160.22 28.14 159.15 28.36 157.95 28.36ZM157.98 15.88C157.04 15.88 156.21 16.15 155.49 16.69C154.77 17.21 154.31 18.01 154.11 19.09H161.52C161.46 18.11 161.1 17.33 160.44 16.75C159.78 16.17 158.96 15.88 157.98 15.88ZM178.879 28.36C177.379 28.36 176.049 28.04 174.889 27.4C173.729 26.76 172.819 25.86 172.159 24.7C171.499 23.54 171.169 22.2 171.169 20.68C171.169 19.14 171.489 17.77 172.129 16.57C172.789 15.37 173.689 14.44 174.829 13.78C175.989 13.1 177.349 12.76 178.909 12.76C180.369 12.76 181.659 13.08 182.779 13.72C183.899 14.36 184.769 15.24 185.389 16.36C186.029 17.46 186.349 18.69 186.349 20.05C186.349 20.27 186.339 20.5 186.319 20.74C186.319 20.98 186.309 21.23 186.289 21.49H174.979C175.059 22.65 175.459 23.56 176.179 24.22C176.919 24.88 177.809 25.21 178.849 25.21C179.629 25.21 180.279 25.04 180.799 24.7C181.339 24.34 181.739 23.88 181.999 23.32H185.899C185.619 24.26 185.149 25.12 184.489 25.9C183.849 26.66 183.049 27.26 182.089 27.7C181.149 28.14 180.079 28.36 178.879 28.36ZM178.909 15.88C177.969 15.88 177.139 16.15 176.419 16.69C175.699 17.21 175.239 18.01 175.039 19.09H182.449C182.389 18.11 182.029 17.33 181.369 16.75C180.709 16.17 179.889 15.88 178.909 15.88ZM199.419 28.36C198.019 28.36 196.769 28.02 195.669 27.34C194.569 26.66 193.699 25.73 193.059 24.55C192.419 23.37 192.099 22.03 192.099 20.53C192.099 19.03 192.419 17.7 193.059 16.54C193.699 15.36 194.569 14.44 195.669 13.78C196.769 13.1 198.019 12.76 199.419 12.76C200.539 12.76 201.519 12.97 202.359 13.39C203.199 13.81 203.879 14.4 204.399 15.16V6.4H208.239V28H204.819L204.399 25.87C203.919 26.53 203.279 27.11 202.479 27.61C201.699 28.11 200.679 28.36 199.419 28.36ZM200.229 25C201.469 25 202.479 24.59 203.259 23.77C204.059 22.93 204.459 21.86 204.459 20.56C204.459 19.26 204.059 18.2 203.259 17.38C202.479 16.54 201.469 16.12 200.229 16.12C199.009 16.12 197.999 16.53 197.199 17.35C196.399 18.17 195.999 19.23 195.999 20.53C195.999 21.83 196.399 22.9 197.199 23.74C197.999 24.58 199.009 25 200.229 25Z" fill="#F78422"/>
<path d="M30 3H0V33H30V3Z" fill="#F78422"/>
<path d="M19.4991 13.4773C15.4334 9.41151 10.0237 7.17236 4.2666 7.17236V11.4083C8.89222 11.4083 13.2382 13.2068 16.504 16.4725C19.7696 19.7383 21.5682 24.0842 21.5682 28.7099H25.8041C25.804 22.9528 23.5649 17.543 19.4991 13.4773Z" fill="white"/>
<path d="M4.22266 14.3403V18.5763C9.81023 18.5763 14.3561 23.1221 14.3561 28.7098H18.5921C18.5921 20.7864 12.146 14.3403 4.22266 14.3403Z" fill="white"/>
<path d="M7.23018 28.8276C8.90576 28.8276 10.2641 27.4692 10.2641 25.7937C10.2641 24.1181 8.90576 22.7598 7.23018 22.7598C5.55461 22.7598 4.19629 24.1181 4.19629 25.7937C4.19629 27.4692 5.55461 28.8276 7.23018 28.8276Z" fill="white"/>
</svg>
